<mxfile host="app.diagrams.net" agent="Mozilla/5.0 (Windows NT 10.0; Win64; x64) AppleWebKit/537.36 (KHTML, like Gecko) Chrome/133.0.0.0 Safari/537.36" version="26.0.13">
  <diagram name="Page-1" id="hbCaFbsLZB5nVaUopwEl">
    <mxGraphModel dx="683" dy="425" grid="1" gridSize="10" guides="1" tooltips="1" connect="1" arrows="1" fold="1" page="1" pageScale="1" pageWidth="850" pageHeight="1100" math="0" shadow="0">
      <root>
        <mxCell id="0" />
        <mxCell id="1" parent="0" />
        <mxCell id="V150V9mAOHtHL611iEyy-3" style="edgeStyle=orthogonalEdgeStyle;rounded=0;orthogonalLoop=1;jettySize=auto;html=1;" parent="1" source="V150V9mAOHtHL611iEyy-1" edge="1">
          <mxGeometry relative="1" as="geometry">
            <mxPoint x="425" y="480" as="targetPoint" />
          </mxGeometry>
        </mxCell>
        <mxCell id="V150V9mAOHtHL611iEyy-4" value="PPM_input == 1" style="edgeLabel;html=1;align=center;verticalAlign=middle;resizable=0;points=[];" parent="V150V9mAOHtHL611iEyy-3" vertex="1" connectable="0">
          <mxGeometry x="-0.16" y="3" relative="1" as="geometry">
            <mxPoint as="offset" />
          </mxGeometry>
        </mxCell>
        <mxCell id="V150V9mAOHtHL611iEyy-1" value="Idle" style="rounded=0;whiteSpace=wrap;html=1;" parent="1" vertex="1">
          <mxGeometry x="365" y="370" width="120" height="60" as="geometry" />
        </mxCell>
        <mxCell id="V150V9mAOHtHL611iEyy-6" style="edgeStyle=orthogonalEdgeStyle;rounded=0;orthogonalLoop=1;jettySize=auto;html=1;entryX=0.5;entryY=0;entryDx=0;entryDy=0;" parent="1" source="V150V9mAOHtHL611iEyy-2" target="V150V9mAOHtHL611iEyy-5" edge="1">
          <mxGeometry relative="1" as="geometry" />
        </mxCell>
        <mxCell id="V150V9mAOHtHL611iEyy-7" value="On negedge of PPM input" style="edgeLabel;html=1;align=center;verticalAlign=middle;resizable=0;points=[];" parent="V150V9mAOHtHL611iEyy-6" vertex="1" connectable="0">
          <mxGeometry x="-0.0357" y="-1" relative="1" as="geometry">
            <mxPoint as="offset" />
          </mxGeometry>
        </mxCell>
        <mxCell id="V150V9mAOHtHL611iEyy-2" value="Measure&lt;br&gt;- Start counter&lt;div&gt;- Measures width of pulse&lt;/div&gt;" style="rounded=0;whiteSpace=wrap;html=1;" parent="1" vertex="1">
          <mxGeometry x="365" y="580" width="120" height="60" as="geometry" />
        </mxCell>
        <mxCell id="V150V9mAOHtHL611iEyy-10" style="edgeStyle=orthogonalEdgeStyle;rounded=0;orthogonalLoop=1;jettySize=auto;html=1;entryX=1;entryY=0.5;entryDx=0;entryDy=0;" parent="1" source="V150V9mAOHtHL611iEyy-5" target="V150V9mAOHtHL611iEyy-2" edge="1">
          <mxGeometry relative="1" as="geometry">
            <Array as="points">
              <mxPoint x="550" y="710" />
              <mxPoint x="550" y="610" />
            </Array>
          </mxGeometry>
        </mxCell>
        <mxCell id="V150V9mAOHtHL611iEyy-11" value="On posedge&amp;nbsp;&lt;div&gt;&amp;amp;&amp;amp; Frame_end != 1&lt;/div&gt;" style="edgeLabel;html=1;align=center;verticalAlign=middle;resizable=0;points=[];" parent="V150V9mAOHtHL611iEyy-10" vertex="1" connectable="0">
          <mxGeometry x="0.1593" relative="1" as="geometry">
            <mxPoint x="20" y="18" as="offset" />
          </mxGeometry>
        </mxCell>
        <mxCell id="V150V9mAOHtHL611iEyy-16" style="edgeStyle=orthogonalEdgeStyle;rounded=0;orthogonalLoop=1;jettySize=auto;html=1;" parent="1" source="V150V9mAOHtHL611iEyy-5" target="V150V9mAOHtHL611iEyy-15" edge="1">
          <mxGeometry relative="1" as="geometry" />
        </mxCell>
        <mxCell id="V150V9mAOHtHL611iEyy-17" value="On posedge&amp;nbsp;&lt;br&gt;&amp;amp;&amp;amp; Frame_end == 1" style="edgeLabel;html=1;align=center;verticalAlign=middle;resizable=0;points=[];" parent="V150V9mAOHtHL611iEyy-16" vertex="1" connectable="0">
          <mxGeometry x="-0.3714" y="-3" relative="1" as="geometry">
            <mxPoint x="3" y="4" as="offset" />
          </mxGeometry>
        </mxCell>
        <mxCell id="V150V9mAOHtHL611iEyy-18" style="edgeStyle=orthogonalEdgeStyle;rounded=0;orthogonalLoop=1;jettySize=auto;html=1;" parent="1" source="V150V9mAOHtHL611iEyy-5" edge="1">
          <mxGeometry relative="1" as="geometry">
            <mxPoint x="365" y="410" as="targetPoint" />
            <Array as="points">
              <mxPoint x="280" y="710" />
              <mxPoint x="280" y="410" />
            </Array>
          </mxGeometry>
        </mxCell>
        <mxCell id="V150V9mAOHtHL611iEyy-19" value="Invalid gap == 1" style="edgeLabel;html=1;align=center;verticalAlign=middle;resizable=0;points=[];" parent="V150V9mAOHtHL611iEyy-18" vertex="1" connectable="0">
          <mxGeometry x="0.1325" y="2" relative="1" as="geometry">
            <mxPoint y="86" as="offset" />
          </mxGeometry>
        </mxCell>
        <mxCell id="V150V9mAOHtHL611iEyy-5" value="Validate interchannel gap (GAP)" style="rounded=0;whiteSpace=wrap;html=1;" parent="1" vertex="1">
          <mxGeometry x="365" y="680" width="120" height="60" as="geometry" />
        </mxCell>
        <mxCell id="V150V9mAOHtHL611iEyy-20" style="edgeStyle=orthogonalEdgeStyle;rounded=0;orthogonalLoop=1;jettySize=auto;html=1;entryX=0;entryY=0.25;entryDx=0;entryDy=0;" parent="1" source="V150V9mAOHtHL611iEyy-15" target="V150V9mAOHtHL611iEyy-1" edge="1">
          <mxGeometry relative="1" as="geometry">
            <mxPoint x="260" y="820" as="targetPoint" />
            <Array as="points">
              <mxPoint x="230" y="820" />
              <mxPoint x="230" y="385" />
            </Array>
          </mxGeometry>
        </mxCell>
        <mxCell id="V150V9mAOHtHL611iEyy-15" value="STORE" style="rounded=0;whiteSpace=wrap;html=1;" parent="1" vertex="1">
          <mxGeometry x="365" y="790" width="120" height="60" as="geometry" />
        </mxCell>
        <mxCell id="I_L8l_8aJPMO7CtZ8ZGV-2" style="edgeStyle=orthogonalEdgeStyle;rounded=0;orthogonalLoop=1;jettySize=auto;html=1;entryX=0.5;entryY=0;entryDx=0;entryDy=0;" parent="1" source="I_L8l_8aJPMO7CtZ8ZGV-1" target="V150V9mAOHtHL611iEyy-2" edge="1">
          <mxGeometry relative="1" as="geometry" />
        </mxCell>
        <mxCell id="I_L8l_8aJPMO7CtZ8ZGV-3" value="# of clk cycles == 5&lt;div&gt;&amp;amp;&amp;amp; PPM_input == 1&lt;/div&gt;" style="edgeLabel;html=1;align=center;verticalAlign=middle;resizable=0;points=[];" parent="I_L8l_8aJPMO7CtZ8ZGV-2" vertex="1" connectable="0">
          <mxGeometry x="-0.2714" y="3" relative="1" as="geometry">
            <mxPoint x="-3" y="2" as="offset" />
          </mxGeometry>
        </mxCell>
        <mxCell id="I_L8l_8aJPMO7CtZ8ZGV-4" style="edgeStyle=orthogonalEdgeStyle;rounded=0;orthogonalLoop=1;jettySize=auto;html=1;entryX=1;entryY=0.5;entryDx=0;entryDy=0;" parent="1" source="I_L8l_8aJPMO7CtZ8ZGV-1" target="V150V9mAOHtHL611iEyy-1" edge="1">
          <mxGeometry relative="1" as="geometry">
            <Array as="points">
              <mxPoint x="540" y="500" />
              <mxPoint x="540" y="400" />
            </Array>
          </mxGeometry>
        </mxCell>
        <mxCell id="I_L8l_8aJPMO7CtZ8ZGV-5" value="# of clk cycles == 5&lt;div&gt;&amp;amp;&amp;amp; PPM_input != 1&lt;br&gt;&lt;/div&gt;" style="edgeLabel;html=1;align=center;verticalAlign=middle;resizable=0;points=[];" parent="I_L8l_8aJPMO7CtZ8ZGV-4" vertex="1" connectable="0">
          <mxGeometry x="-0.0326" y="-2" relative="1" as="geometry">
            <mxPoint as="offset" />
          </mxGeometry>
        </mxCell>
        <mxCell id="I_L8l_8aJPMO7CtZ8ZGV-1" value="Counting 1s" style="rounded=0;whiteSpace=wrap;html=1;" parent="1" vertex="1">
          <mxGeometry x="365" y="470" width="120" height="60" as="geometry" />
        </mxCell>
        <mxCell id="I_L8l_8aJPMO7CtZ8ZGV-7" style="edgeStyle=orthogonalEdgeStyle;rounded=0;orthogonalLoop=1;jettySize=auto;html=1;entryX=0.5;entryY=0;entryDx=0;entryDy=0;" parent="1" source="I_L8l_8aJPMO7CtZ8ZGV-9" edge="1" target="I_L8l_8aJPMO7CtZ8ZGV-26">
          <mxGeometry relative="1" as="geometry">
            <mxPoint x="459.94" y="1100" as="targetPoint" />
          </mxGeometry>
        </mxCell>
        <mxCell id="SgZbVkb8MoTtRzP9FXSa-2" value="PPM_input = 0" style="edgeLabel;html=1;align=center;verticalAlign=middle;resizable=0;points=[];" vertex="1" connectable="0" parent="I_L8l_8aJPMO7CtZ8ZGV-7">
          <mxGeometry x="-0.2548" relative="1" as="geometry">
            <mxPoint as="offset" />
          </mxGeometry>
        </mxCell>
        <mxCell id="I_L8l_8aJPMO7CtZ8ZGV-9" value="Idle" style="rounded=0;whiteSpace=wrap;html=1;" parent="1" vertex="1">
          <mxGeometry x="399.94" y="990" width="120" height="60" as="geometry" />
        </mxCell>
        <mxCell id="I_L8l_8aJPMO7CtZ8ZGV-10" style="edgeStyle=orthogonalEdgeStyle;rounded=0;orthogonalLoop=1;jettySize=auto;html=1;entryX=0.5;entryY=0;entryDx=0;entryDy=0;" parent="1" source="I_L8l_8aJPMO7CtZ8ZGV-12" target="I_L8l_8aJPMO7CtZ8ZGV-19" edge="1">
          <mxGeometry relative="1" as="geometry" />
        </mxCell>
        <mxCell id="SgZbVkb8MoTtRzP9FXSa-4" value="PPM_input = 1&lt;div&gt;&amp;amp;&amp;amp; # clk cycles = 3&lt;/div&gt;" style="edgeLabel;html=1;align=center;verticalAlign=middle;resizable=0;points=[];" vertex="1" connectable="0" parent="I_L8l_8aJPMO7CtZ8ZGV-10">
          <mxGeometry x="-0.2024" y="1" relative="1" as="geometry">
            <mxPoint as="offset" />
          </mxGeometry>
        </mxCell>
        <mxCell id="I_L8l_8aJPMO7CtZ8ZGV-12" value="Validate high" style="rounded=0;whiteSpace=wrap;html=1;" parent="1" vertex="1">
          <mxGeometry x="399.94" y="1200" width="120" height="60" as="geometry" />
        </mxCell>
        <mxCell id="I_L8l_8aJPMO7CtZ8ZGV-15" style="edgeStyle=orthogonalEdgeStyle;rounded=0;orthogonalLoop=1;jettySize=auto;html=1;" parent="1" source="I_L8l_8aJPMO7CtZ8ZGV-19" target="I_L8l_8aJPMO7CtZ8ZGV-21" edge="1">
          <mxGeometry relative="1" as="geometry" />
        </mxCell>
        <mxCell id="SgZbVkb8MoTtRzP9FXSa-5" value="PPM_input = 0" style="edgeLabel;html=1;align=center;verticalAlign=middle;resizable=0;points=[];" vertex="1" connectable="0" parent="I_L8l_8aJPMO7CtZ8ZGV-15">
          <mxGeometry x="-0.3257" y="-1" relative="1" as="geometry">
            <mxPoint as="offset" />
          </mxGeometry>
        </mxCell>
        <mxCell id="I_L8l_8aJPMO7CtZ8ZGV-19" value="Measure" style="rounded=0;whiteSpace=wrap;html=1;" parent="1" vertex="1">
          <mxGeometry x="399.94" y="1300" width="120" height="60" as="geometry" />
        </mxCell>
        <mxCell id="I_L8l_8aJPMO7CtZ8ZGV-20" style="edgeStyle=orthogonalEdgeStyle;rounded=0;orthogonalLoop=1;jettySize=auto;html=1;" parent="1" source="I_L8l_8aJPMO7CtZ8ZGV-21" target="I_L8l_8aJPMO7CtZ8ZGV-26" edge="1">
          <mxGeometry relative="1" as="geometry">
            <mxPoint x="294.94" y="1440" as="targetPoint" />
            <Array as="points">
              <mxPoint x="340" y="1420" />
              <mxPoint x="340" y="1120" />
            </Array>
          </mxGeometry>
        </mxCell>
        <mxCell id="SgZbVkb8MoTtRzP9FXSa-8" value="counter &amp;lt; 6" style="edgeLabel;html=1;align=center;verticalAlign=middle;resizable=0;points=[];" vertex="1" connectable="0" parent="I_L8l_8aJPMO7CtZ8ZGV-20">
          <mxGeometry x="-0.0137" y="-1" relative="1" as="geometry">
            <mxPoint as="offset" />
          </mxGeometry>
        </mxCell>
        <mxCell id="SgZbVkb8MoTtRzP9FXSa-9" style="edgeStyle=orthogonalEdgeStyle;rounded=0;orthogonalLoop=1;jettySize=auto;html=1;entryX=0;entryY=0.5;entryDx=0;entryDy=0;" edge="1" parent="1" source="I_L8l_8aJPMO7CtZ8ZGV-21" target="I_L8l_8aJPMO7CtZ8ZGV-9">
          <mxGeometry relative="1" as="geometry">
            <mxPoint x="210" y="1210" as="targetPoint" />
            <Array as="points">
              <mxPoint x="280" y="1460" />
              <mxPoint x="280" y="1020" />
            </Array>
          </mxGeometry>
        </mxCell>
        <mxCell id="SgZbVkb8MoTtRzP9FXSa-10" value="counter = 0" style="edgeLabel;html=1;align=center;verticalAlign=middle;resizable=0;points=[];" vertex="1" connectable="0" parent="SgZbVkb8MoTtRzP9FXSa-9">
          <mxGeometry x="0.1324" y="-1" relative="1" as="geometry">
            <mxPoint as="offset" />
          </mxGeometry>
        </mxCell>
        <mxCell id="I_L8l_8aJPMO7CtZ8ZGV-21" value="STORE" style="rounded=0;whiteSpace=wrap;html=1;" parent="1" vertex="1">
          <mxGeometry x="399.94" y="1410" width="120" height="60" as="geometry" />
        </mxCell>
        <mxCell id="I_L8l_8aJPMO7CtZ8ZGV-22" style="edgeStyle=orthogonalEdgeStyle;rounded=0;orthogonalLoop=1;jettySize=auto;html=1;entryX=0.5;entryY=0;entryDx=0;entryDy=0;" parent="1" source="I_L8l_8aJPMO7CtZ8ZGV-26" target="I_L8l_8aJPMO7CtZ8ZGV-12" edge="1">
          <mxGeometry relative="1" as="geometry" />
        </mxCell>
        <mxCell id="SgZbVkb8MoTtRzP9FXSa-3" value="PPM_input = 1&lt;br&gt;&amp;amp;&amp;amp; # clk cycles &amp;gt; 3" style="edgeLabel;html=1;align=center;verticalAlign=middle;resizable=0;points=[];" vertex="1" connectable="0" parent="I_L8l_8aJPMO7CtZ8ZGV-22">
          <mxGeometry x="0.019" y="-1" relative="1" as="geometry">
            <mxPoint x="1" y="-5" as="offset" />
          </mxGeometry>
        </mxCell>
        <mxCell id="SgZbVkb8MoTtRzP9FXSa-6" style="edgeStyle=orthogonalEdgeStyle;rounded=0;orthogonalLoop=1;jettySize=auto;html=1;entryX=1;entryY=0.5;entryDx=0;entryDy=0;" edge="1" parent="1" source="I_L8l_8aJPMO7CtZ8ZGV-26" target="I_L8l_8aJPMO7CtZ8ZGV-9">
          <mxGeometry relative="1" as="geometry">
            <Array as="points">
              <mxPoint x="570" y="1120" />
              <mxPoint x="570" y="1020" />
            </Array>
          </mxGeometry>
        </mxCell>
        <mxCell id="SgZbVkb8MoTtRzP9FXSa-7" value="PPM_input = 1&lt;br&gt;&amp;amp;&amp;amp; # clk cycles &amp;lt; 3" style="edgeLabel;html=1;align=center;verticalAlign=middle;resizable=0;points=[];" vertex="1" connectable="0" parent="SgZbVkb8MoTtRzP9FXSa-6">
          <mxGeometry x="-0.088" y="2" relative="1" as="geometry">
            <mxPoint as="offset" />
          </mxGeometry>
        </mxCell>
        <mxCell id="I_L8l_8aJPMO7CtZ8ZGV-26" value="Validate low&lt;br&gt;Wait for high" style="rounded=0;whiteSpace=wrap;html=1;" parent="1" vertex="1">
          <mxGeometry x="399.94" y="1090" width="120" height="60" as="geometry" />
        </mxCell>
      </root>
    </mxGraphModel>
  </diagram>
</mxfile>
